<svg width="980" height="280" viewBox="0 0 980 280" xmlns="http://www.w3.org/2000/svg">
  <defs>
    <path id="ts" d="M 390 200 C 390 249.7 342.8 283.5 313.1 313.1 C 283.5 342.8 249.7 390 200 390 C 150.3 390 116.5 342.8 86.9 313.1 C 57.2 283.5 10 249.7 10 200 C 10 150.3 57.2 116.5 86.9 86.9 C 116.5 57.2 150.3 10 200 10 C 249.7 10 283.5 57.2 313.1 86.9 C 342.8 116.5 390 150.3 390 200 Z"/>
    <clipPath id="pc">
      <use href="#ts" transform="translate(200 200) scale(.88) translate(-200 -200)"/>
    </clipPath>
    <pattern id="sg" width="60" height="60" patternUnits="userSpaceOnUse" patternTransform="rotate(45)">
      <g fill="none" stroke="#14B8A6" stroke-width="2.4" stroke-linecap="square">
        <path d="M 0 15 L 15 15 L 15 0 M 15 15 L 30 15 L 30 0 M 15 15 L 15 30 L 0 30 M 30 15 L 30 30 M 60 45 L 45 45 L 45 60 M 45 45 L 30 45 L 30 60 M 45 45 L 45 30 L 60 30 M 30 45 L 30 30 M 30 30 L 45 30 M 0 45 L 15 45 M 15 45 L 15 60 M 45 0 L 45 15 M 45 15 L 60 15"/>
      </g>
    </pattern>
  </defs>

  <rect width="980" height="280" fill="#09242C"/>

  <!-- Code texture -->
  <text x="596" y="42"  font-family="'Courier New',monospace" font-size="10" fill="#14B8A6" opacity="0.09">const</text>
  <text x="658" y="70"  font-family="'Courier New',monospace" font-size="10" fill="#0D9488"  opacity="0.10">&lt;/&gt;</text>
  <text x="730" y="50"  font-family="'Courier New',monospace" font-size="10" fill="#14B8A6" opacity="0.09">async</text>
  <text x="600" y="200" font-family="'Courier New',monospace" font-size="9"  fill="#0D9488"  opacity="0.08">fn()</text>
  <text x="672" y="220" font-family="'Courier New',monospace" font-size="9"  fill="#14B8A6" opacity="0.09">import</text>
  <text x="762" y="205" font-family="'Courier New',monospace" font-size="9"  fill="#0D9488"  opacity="0.07">01010</text>
  <text x="598" y="248" font-family="'Courier New',monospace" font-size="10" fill="#14B8A6" opacity="0.08">{ }</text>
  <text x="680" y="250" font-family="'Courier New',monospace" font-size="9"  fill="#0D9488"  opacity="0.08">// .</text>
  <text x="762" y="248" font-family="'Courier New',monospace" font-size="9"  fill="#14B8A6" opacity="0.07">true</text>
  <text x="106" y="40"  font-family="'Courier New',monospace" font-size="9"  fill="#0D9488"  opacity="0.06">01</text>
  <text x="212" y="40"  font-family="'Courier New',monospace" font-size="9"  fill="#14B8A6" opacity="0.06">/&gt;</text>

  <!-- Tsuba glow halos -->
  <circle cx="888" cy="125" r="54" fill="#0D9488" opacity="0.04"/>
  <circle cx="888" cy="125" r="45" fill="#0D9488" opacity="0.07"/>

  <!-- Tsuba at (888,125), S=0.189 -->
  <g transform="translate(888,125) scale(0.189) translate(-200,-200)">
    <use href="#ts" fill="#0B2E37"/>
    <g clip-path="url(#pc)">
      <rect x="0" y="0" width="400" height="400" fill="url(#sg)" opacity="0.07"/>
    </g>
    <ellipse cx="200" cy="200" rx="78" ry="44" fill="#1A5C70" stroke="#14B8A6" stroke-width="13" opacity="0.90"/>
    <ellipse cx="200" cy="200" rx="73" ry="39" fill="none" stroke="#0D9488" stroke-width="5" opacity="0.50"/>
    <use href="#ts" fill="none" stroke="#14B8A6" stroke-width="9.5" opacity="0.85"/>
    <g transform="translate(200 200) scale(.93) translate(-200 -200)">
      <use href="#ts" fill="none" stroke="#0D9488" stroke-width="2.6" opacity="0.45"/>
    </g>
    <path d="M 200 154 C 207 154 211 160 212 168 L 215 232 C 215 242 209 250 200 250 C 191 250 185 242 185 232 L 188 168 C 189 160 193 154 200 154 Z"
      fill="#09242C" stroke="#14B8A6" stroke-width="9.5" opacity="0.90"/>
    <path d="M 165 200 C 165 192 158 188 149 188 C 138 188 130 196 130 204 C 130 212 138 220 149 220 C 158 220 165 216 165 208 Z"
      fill="#09242C" stroke="#0D9488" stroke-width="6" opacity="0.65"/>
    <path d="M 235 200 C 235 192 244 188 254 188 C 263 188 270 194 270 200 C 270 208 263 220 254 220 C 244 220 235 214 235 208 Z"
      fill="#09242C" stroke="#0D9488" stroke-width="6" opacity="0.65"/>
  </g>

  <!-- Vertical accent line -->
  <line x1="68" y1="44" x2="68" y2="230" stroke="#0D9488" stroke-width="1" opacity="0.3"/>
  <circle cx="68" cy="44"  r="2" fill="#0D9488" opacity="0.4"/>
  <circle cx="68" cy="230" r="2" fill="#0D9488" opacity="0.4"/>

  <!-- Greeting -->
  <text x="88" y="62"
    font-family="'Noto Sans','Segoe UI',Arial,sans-serif"
    font-size="12" fill="#2DD4BF" opacity="0.90" letter-spacing="1.5">Hello · నమస్కారం · வணக்கம் · नमस्ते · Hola · こんにちは</text>

  <text x="86" y="118"
    font-family="Georgia,'Times New Roman',serif"
    font-size="48" font-weight="400" fill="#EAF4F3" letter-spacing="-1">Venkata</text>

  <text x="86" y="174"
    font-family="Georgia,'Times New Roman',serif"
    font-size="48" font-weight="400" fill="#EAF4F3" letter-spacing="-1"><tspan fill="#2DD4BF" font-weight="600">Sai</tspan> Charan Naidu</text>

  <text x="86" y="230"
    font-family="Georgia,'Times New Roman',serif"
    font-size="48" font-weight="400" fill="#EAF4F3" letter-spacing="-1">Kuppala</text>

  <!-- Ocean waves -->
  <path d="M0,254 C163,234 327,274 490,254 C653,234 817,274 980,254 L980,280 L0,280 Z" fill="#0D9488" opacity="0.18"/>
  <path d="M0,262 C130,248 262,276 392,262 C522,248 653,276 784,262 C848,256 915,268 980,262 L980,280 L0,280 Z" fill="#0D9488" opacity="0.12"/>
  <path d="M0,270 C245,258 490,280 735,270 C857,264 919,276 980,270 L980,280 L0,280 Z" fill="#14B8A6" opacity="0.08"/>
</svg>
